# xmcd
#
# Track frame offsets:
#	150
#	14808
#	32093
#	46705
#	63000
#	79644
#	95801
#	114934
#	130609
#	148273
#	163681
#	178484
#	194173
#	208901
#	222161
#	239359
#
# Disc length: 3385
#
# Revision: 3
# Processed by: cddbd v1.5.2PL0 Copyright (c) Steve Scherf et al.
# Submitted via: kJams Lite 1.1b12
#
DISCID=ee0d3710
DTITLE=Party Tyme Karaoke - Country Hits 23
DYEAR=2019
DGENRE=Country
TTITLE0=Kane Brown - Lose It
TTITLE1=Scotty McCreery - This Is It
TTITLE2=Kelsea Ballerini - Miss Me More
TTITLE3=Mitchell Tenpenny - Drunk Me
TTITLE4=Luke Bryan - Sunrise, Sunburn, Sunset
TTITLE5=Russell Dickerson - Blue Tacoma
TTITLE6=Maren Morris - Girl
TTITLE7=Chris Stapleton - Millionaire
TTITLE8=Luke Bryan - What Makes You Country
TTITLE9=Dustin Lynch - Good Girl
TTITLE10=Jimmie Allen - Bst Shot
TTITLE11=Kacey Musgraves - Rainbow
TTITLE12=Thomas Rhett - Life Changes
TTITLE13=Old Dominion - Hotel Key
TTITLE14=Carrie Underwood - Love Wins
TTITLE15=Thomas Rhett - Sixteen
EXTD=
EXTT0=none
EXTT1=none
EXTT2=none
EXTT3=none
EXTT4=none
EXTT5=none
EXTT6=none
EXTT7=none
EXTT8=none
EXTT9=none
EXTT10=none
EXTT11=none
EXTT12=none
EXTT13=none
EXTT14=none
EXTT15=none
PLAYORDER=
